<mxfile host="app.diagrams.net" modified="2021-05-18T09:25:37.107Z" agent="5.0 (Macintosh; Intel Mac OS X 10_15_7) AppleWebKit/537.36 (KHTML, like Gecko) Chrome/90.0.4430.212 Safari/537.36" etag="qGpEI9-NixddoF_bmG7l" version="14.6.12" type="github">
  <diagram id="ABEOSID_SHD5qHv0914J" name="第 1 页">
    <mxGraphModel dx="1127" dy="771" grid="1" gridSize="10" guides="1" tooltips="1" connect="1" arrows="1" fold="1" page="1" pageScale="1" pageWidth="827" pageHeight="1169" math="0" shadow="0">
      <root>
        <mxCell id="0" />
        <mxCell id="1" parent="0" />
        <mxCell id="ohyRv_92SgE4qDxSToRl-28" value="" style="rounded=0;whiteSpace=wrap;html=1;fillColor=#dae8fc;strokeColor=#6c8ebf;" vertex="1" parent="1">
          <mxGeometry x="590" y="210" width="120" height="300" as="geometry" />
        </mxCell>
        <mxCell id="ohyRv_92SgE4qDxSToRl-20" value="" style="rounded=0;whiteSpace=wrap;html=1;" vertex="1" parent="1">
          <mxGeometry x="160" y="210" width="120" height="300" as="geometry" />
        </mxCell>
        <mxCell id="ohyRv_92SgE4qDxSToRl-16" value="字段过滤" style="rounded=1;whiteSpace=wrap;html=1;dashed=1;" vertex="1" parent="1">
          <mxGeometry x="185" y="270" width="70" height="30" as="geometry" />
        </mxCell>
        <mxCell id="ohyRv_92SgE4qDxSToRl-19" value="Actor" style="shape=umlActor;verticalLabelPosition=bottom;verticalAlign=top;html=1;outlineConnect=0;" vertex="1" parent="1">
          <mxGeometry x="90" y="320" width="30" height="60" as="geometry" />
        </mxCell>
        <mxCell id="ohyRv_92SgE4qDxSToRl-22" value="拦截器" style="text;html=1;align=center;verticalAlign=middle;resizable=0;points=[];autosize=1;strokeColor=none;" vertex="1" parent="1">
          <mxGeometry x="190" y="230" width="50" height="20" as="geometry" />
        </mxCell>
        <mxCell id="ohyRv_92SgE4qDxSToRl-24" value="..." style="shape=cylinder3;whiteSpace=wrap;html=1;boundedLbl=1;backgroundOutline=1;size=15;" vertex="1" parent="1">
          <mxGeometry x="620" y="323" width="60" height="80" as="geometry" />
        </mxCell>
        <mxCell id="ohyRv_92SgE4qDxSToRl-25" value="MySql" style="shape=cylinder3;whiteSpace=wrap;html=1;boundedLbl=1;backgroundOutline=1;size=15;" vertex="1" parent="1">
          <mxGeometry x="620" y="230" width="60" height="80" as="geometry" />
        </mxCell>
        <mxCell id="ohyRv_92SgE4qDxSToRl-26" value="..." style="shape=cylinder3;whiteSpace=wrap;html=1;boundedLbl=1;backgroundOutline=1;size=15;" vertex="1" parent="1">
          <mxGeometry x="620" y="420" width="60" height="80" as="geometry" />
        </mxCell>
        <mxCell id="ohyRv_92SgE4qDxSToRl-29" value="核心服务" style="rounded=1;whiteSpace=wrap;html=1;dashed=1;" vertex="1" parent="1">
          <mxGeometry x="390" y="210" width="70" height="30" as="geometry" />
        </mxCell>
        <mxCell id="ohyRv_92SgE4qDxSToRl-30" value="核心服务" style="rounded=1;whiteSpace=wrap;html=1;dashed=1;" vertex="1" parent="1">
          <mxGeometry x="390" y="270" width="70" height="30" as="geometry" />
        </mxCell>
        <mxCell id="ohyRv_92SgE4qDxSToRl-31" value="核心服务" style="rounded=1;whiteSpace=wrap;html=1;dashed=1;" vertex="1" parent="1">
          <mxGeometry x="390" y="335" width="70" height="30" as="geometry" />
        </mxCell>
        <mxCell id="ohyRv_92SgE4qDxSToRl-32" value="核心服务" style="rounded=1;whiteSpace=wrap;html=1;dashed=1;" vertex="1" parent="1">
          <mxGeometry x="390" y="400" width="70" height="30" as="geometry" />
        </mxCell>
        <mxCell id="ohyRv_92SgE4qDxSToRl-33" value="核心服务" style="rounded=1;whiteSpace=wrap;html=1;dashed=1;" vertex="1" parent="1">
          <mxGeometry x="390" y="470" width="70" height="30" as="geometry" />
        </mxCell>
      </root>
    </mxGraphModel>
  </diagram>
</mxfile>
